<?xml version="1.0" encoding="utf-8"?>
<!-- Generator: Adobe Illustrator 16.0.0, SVG Export Plug-In . SVG Version: 6.00 Build 0)  -->
<!DOCTYPE svg PUBLIC "-//W3C//DTD SVG 1.1//EN" "http://www.w3.org/Graphics/SVG/1.1/DTD/svg11.dtd">
<svg version="1.1" id="Calque_1" xmlns="http://www.w3.org/2000/svg" xmlns:xlink="http://www.w3.org/1999/xlink" x="0px" y="0px"
	 width="113.364px" height="113.363px" viewBox="0 0 113.364 113.363" enable-background="new 0 0 113.364 113.363"
	 xml:space="preserve">
<g>
	<path fill="#232C50" d="M21.925,43.562c-1.099,0-1.966,0.365-2.601,1.097c-0.637,0.731-0.954,1.733-0.954,3.005
		c0,1.308,0.307,2.318,0.919,3.031c0.613,0.713,1.487,1.07,2.622,1.07c0.697,0,1.492-0.125,2.386-0.376v1.019
		c-0.693,0.26-1.547,0.39-2.563,0.39c-1.472,0-2.608-0.447-3.407-1.34c-0.801-0.894-1.2-2.163-1.2-3.808
		c0-1.03,0.192-1.933,0.577-2.707c0.386-0.775,0.941-1.372,1.668-1.791c0.728-0.419,1.583-0.629,2.567-0.629
		c1.048,0,1.964,0.191,2.748,0.574l-0.492,0.998C23.438,43.74,22.682,43.562,21.925,43.562z"/>
	<path fill="#232C50" d="M32.773,48.908c0,1.221-0.308,2.175-0.923,2.86c-0.615,0.686-1.466,1.029-2.55,1.029
		c-0.67,0-1.265-0.157-1.784-0.472s-0.921-0.766-1.203-1.354s-0.424-1.276-0.424-2.064c0-1.222,0.306-2.173,0.916-2.854
		c0.61-0.681,1.458-1.021,2.543-1.021c1.048,0,1.881,0.349,2.499,1.046C32.465,46.775,32.773,47.718,32.773,48.908z M27.065,48.908
		c0,0.957,0.191,1.686,0.574,2.188c0.383,0.501,0.945,0.752,1.688,0.752c0.742,0,1.307-0.25,1.691-0.749
		c0.386-0.499,0.578-1.229,0.578-2.19c0-0.953-0.192-1.676-0.578-2.171c-0.385-0.494-0.953-0.741-1.705-0.741
		c-0.743,0-1.304,0.244-1.682,0.731C27.254,47.214,27.065,47.941,27.065,48.908z"/>
	<path fill="#232C50" d="M44.313,52.661v-4.874c0-0.597-0.128-1.045-0.383-1.344c-0.256-0.298-0.652-0.447-1.189-0.447
		c-0.707,0-1.229,0.203-1.565,0.608c-0.337,0.405-0.506,1.03-0.506,1.873v4.184h-1.135v-4.874c0-0.597-0.128-1.045-0.383-1.344
		c-0.255-0.298-0.654-0.447-1.196-0.447c-0.711,0-1.231,0.213-1.563,0.639c-0.33,0.426-0.495,1.125-0.495,2.096v3.931h-1.135v-7.492
		h0.923l0.185,1.025h0.055c0.214-0.365,0.517-0.649,0.905-0.854c0.391-0.205,0.826-0.308,1.31-0.308
		c1.171,0,1.937,0.424,2.297,1.271h0.055c0.224-0.392,0.547-0.702,0.971-0.93c0.424-0.228,0.907-0.342,1.449-0.342
		c0.848,0,1.482,0.217,1.903,0.652c0.422,0.436,0.633,1.132,0.633,2.089v4.888H44.313z"/>
	<path fill="#232C50" d="M57.335,52.661v-4.874c0-0.597-0.128-1.045-0.383-1.344c-0.255-0.298-0.651-0.447-1.189-0.447
		c-0.706,0-1.229,0.203-1.565,0.608c-0.338,0.405-0.506,1.03-0.506,1.873v4.184h-1.135v-4.874c0-0.597-0.128-1.045-0.383-1.344
		c-0.256-0.298-0.654-0.447-1.196-0.447c-0.711,0-1.231,0.213-1.562,0.639c-0.331,0.426-0.496,1.125-0.496,2.096v3.931h-1.135
		v-7.492h0.923l0.185,1.025h0.055c0.214-0.365,0.516-0.649,0.906-0.854c0.389-0.205,0.825-0.308,1.309-0.308
		c1.171,0,1.937,0.424,2.297,1.271h0.055c0.223-0.392,0.547-0.702,0.971-0.93c0.424-0.228,0.906-0.342,1.449-0.342
		c0.848,0,1.482,0.217,1.904,0.652c0.421,0.436,0.632,1.132,0.632,2.089v4.888H57.335z"/>
	<path fill="#232C50" d="M60.712,43.138c0-0.26,0.063-0.45,0.191-0.571c0.128-0.121,0.287-0.181,0.479-0.181
		c0.183,0,0.339,0.062,0.472,0.185c0.132,0.123,0.198,0.312,0.198,0.567c0,0.255-0.066,0.445-0.198,0.57
		c-0.133,0.125-0.289,0.188-0.472,0.188c-0.191,0-0.351-0.063-0.479-0.188C60.775,43.583,60.712,43.393,60.712,43.138z
		 M61.942,52.661h-1.135v-7.492h1.135V52.661z"/>
	<path fill="#232C50" d="M69.182,50.617c0,0.697-0.26,1.235-0.779,1.613c-0.52,0.378-1.249,0.567-2.188,0.567
		c-0.994,0-1.769-0.157-2.324-0.472v-1.053c0.359,0.182,0.746,0.326,1.158,0.431c0.413,0.104,0.811,0.157,1.193,0.157
		c0.592,0,1.048-0.095,1.367-0.284c0.318-0.189,0.479-0.477,0.479-0.864c0-0.292-0.127-0.542-0.379-0.749
		c-0.254-0.207-0.747-0.452-1.48-0.734c-0.697-0.26-1.193-0.487-1.486-0.681c-0.295-0.193-0.514-0.413-0.656-0.659
		c-0.145-0.246-0.216-0.54-0.216-0.882c0-0.611,0.248-1.093,0.745-1.446c0.496-0.353,1.178-0.529,2.044-0.529
		c0.807,0,1.595,0.164,2.365,0.492l-0.403,0.923c-0.752-0.31-1.434-0.465-2.044-0.465c-0.538,0-0.943,0.084-1.217,0.253
		c-0.273,0.168-0.41,0.401-0.41,0.697c0,0.2,0.052,0.371,0.153,0.513c0.104,0.141,0.268,0.275,0.496,0.403
		c0.228,0.127,0.665,0.312,1.313,0.554c0.889,0.323,1.489,0.649,1.801,0.978C69.025,49.708,69.182,50.12,69.182,50.617z"/>
	<path fill="#232C50" d="M75.86,50.617c0,0.697-0.26,1.235-0.779,1.613c-0.52,0.378-1.249,0.567-2.188,0.567
		c-0.993,0-1.769-0.157-2.324-0.472v-1.053c0.36,0.182,0.746,0.326,1.159,0.431c0.412,0.104,0.81,0.157,1.192,0.157
		c0.593,0,1.048-0.095,1.367-0.284c0.319-0.189,0.479-0.477,0.479-0.864c0-0.292-0.126-0.542-0.38-0.749
		c-0.252-0.207-0.746-0.452-1.479-0.734c-0.697-0.26-1.192-0.487-1.487-0.681c-0.293-0.193-0.512-0.413-0.656-0.659
		c-0.143-0.246-0.215-0.54-0.215-0.882c0-0.611,0.248-1.093,0.745-1.446c0.497-0.353,1.178-0.529,2.044-0.529
		c0.807,0,1.595,0.164,2.365,0.492L75.3,46.447c-0.752-0.31-1.434-0.465-2.044-0.465c-0.538,0-0.943,0.084-1.217,0.253
		c-0.273,0.168-0.41,0.401-0.41,0.697c0,0.2,0.051,0.371,0.154,0.513c0.102,0.141,0.268,0.275,0.495,0.403
		c0.228,0.127,0.665,0.312,1.313,0.554c0.889,0.323,1.489,0.649,1.802,0.978C75.704,49.708,75.86,50.12,75.86,50.617z"/>
	<path fill="#232C50" d="M77.61,43.138c0-0.26,0.063-0.45,0.191-0.571c0.128-0.121,0.287-0.181,0.479-0.181
		c0.183,0,0.339,0.062,0.472,0.185c0.132,0.123,0.198,0.312,0.198,0.567c0,0.255-0.066,0.445-0.198,0.57
		c-0.133,0.125-0.289,0.188-0.472,0.188c-0.191,0-0.351-0.063-0.479-0.188C77.674,43.583,77.61,43.393,77.61,43.138z M78.841,52.661
		h-1.135v-7.492h1.135V52.661z"/>
	<path fill="#232C50" d="M87.714,48.908c0,1.221-0.308,2.175-0.923,2.86c-0.615,0.686-1.465,1.029-2.55,1.029
		c-0.67,0-1.265-0.157-1.784-0.472s-0.921-0.766-1.203-1.354c-0.283-0.588-0.424-1.276-0.424-2.064c0-1.222,0.305-2.173,0.916-2.854
		c0.61-0.681,1.458-1.021,2.543-1.021c1.048,0,1.881,0.349,2.498,1.046C87.405,46.775,87.714,47.718,87.714,48.908z M82.006,48.908
		c0,0.957,0.191,1.686,0.574,2.188c0.383,0.501,0.945,0.752,1.688,0.752s1.307-0.25,1.692-0.749c0.385-0.499,0.577-1.229,0.577-2.19
		c0-0.953-0.192-1.676-0.577-2.171c-0.386-0.494-0.954-0.741-1.706-0.741c-0.743,0-1.304,0.244-1.682,0.731
		C82.195,47.214,82.006,47.941,82.006,48.908z"/>
	<path fill="#232C50" d="M94.83,52.661v-4.847c0-0.611-0.139-1.066-0.417-1.367s-0.714-0.451-1.306-0.451
		c-0.784,0-1.358,0.212-1.723,0.636c-0.365,0.424-0.547,1.123-0.547,2.099v3.931h-1.135v-7.492h0.923l0.185,1.025h0.055
		c0.232-0.369,0.559-0.655,0.978-0.858c0.419-0.203,0.886-0.304,1.401-0.304c0.902,0,1.581,0.217,2.037,0.652
		c0.455,0.436,0.684,1.132,0.684,2.089v4.888H94.83z"/>
	<path fill="#232C50" d="M23.688,69.46h-5.571v-9.994h5.571v1.032h-4.409v3.22h4.143v1.025h-4.143v3.678h4.409V69.46z"/>
	<path fill="#232C50" d="M26.799,61.968v4.86c0,0.611,0.139,1.066,0.417,1.367s0.713,0.451,1.306,0.451
		c0.783,0,1.357-0.214,1.719-0.643c0.363-0.428,0.544-1.128,0.544-2.099v-3.938h1.135v7.492h-0.937l-0.164-1.005h-0.062
		c-0.232,0.369-0.555,0.652-0.968,0.848c-0.412,0.196-0.883,0.294-1.411,0.294c-0.911,0-1.594-0.216-2.048-0.649
		c-0.453-0.433-0.68-1.125-0.68-2.078v-4.901H26.799z"/>
	<path fill="#232C50" d="M37.743,61.832c0.333,0,0.631,0.027,0.896,0.082l-0.157,1.053c-0.31-0.068-0.583-0.103-0.82-0.103
		c-0.606,0-1.124,0.246-1.556,0.738c-0.43,0.492-0.646,1.105-0.646,1.839v4.02h-1.135v-7.492h0.937l0.13,1.388h0.055
		c0.278-0.487,0.612-0.863,1.005-1.128C36.843,61.964,37.273,61.832,37.743,61.832z"/>
	<path fill="#232C50" d="M46.507,65.708c0,1.222-0.308,2.175-0.923,2.861s-1.465,1.029-2.55,1.029c-0.67,0-1.265-0.157-1.784-0.472
		s-0.921-0.766-1.203-1.354c-0.283-0.588-0.424-1.276-0.424-2.064c0-1.221,0.305-2.173,0.916-2.854
		c0.61-0.681,1.458-1.022,2.543-1.022c1.048,0,1.881,0.349,2.498,1.046C46.198,63.575,46.507,64.518,46.507,65.708z M40.799,65.708
		c0,0.957,0.191,1.687,0.574,2.188c0.383,0.501,0.945,0.752,1.688,0.752s1.307-0.25,1.692-0.749
		c0.385-0.499,0.577-1.229,0.577-2.191c0-0.952-0.192-1.676-0.577-2.17c-0.386-0.495-0.954-0.742-1.706-0.742
		c-0.743,0-1.304,0.244-1.682,0.731C40.988,64.015,40.799,64.742,40.799,65.708z"/>
	<path fill="#232C50" d="M51.982,69.597c-0.488,0-0.934-0.09-1.336-0.27c-0.404-0.18-0.742-0.457-1.016-0.831h-0.082
		c0.055,0.438,0.082,0.853,0.082,1.244v3.083h-1.135V61.968h0.923l0.157,1.025h0.055c0.291-0.41,0.631-0.706,1.019-0.889
		c0.388-0.182,0.831-0.273,1.333-0.273c0.993,0,1.76,0.34,2.301,1.019c0.539,0.679,0.81,1.632,0.81,2.857
		c0,1.23-0.274,2.187-0.823,2.868C53.72,69.256,52.957,69.597,51.982,69.597z M51.818,62.795c-0.766,0-1.319,0.212-1.661,0.636
		s-0.518,1.099-0.526,2.023v0.253c0,1.053,0.176,1.806,0.526,2.259s0.913,0.68,1.688,0.68c0.646,0,1.154-0.262,1.521-0.786
		c0.366-0.524,0.55-1.246,0.55-2.167c0-0.934-0.184-1.651-0.55-2.15C53,63.045,52.483,62.795,51.818,62.795z"/>
	<path fill="#232C50" d="M60.24,69.597c-1.107,0-1.981-0.337-2.621-1.012c-0.641-0.674-0.961-1.611-0.961-2.81
		c0-1.208,0.297-2.167,0.893-2.878c0.594-0.711,1.393-1.066,2.396-1.066c0.938,0,1.682,0.309,2.229,0.926s0.82,1.432,0.82,2.444
		v0.718h-5.161c0.022,0.88,0.245,1.547,0.666,2.003c0.422,0.456,1.016,0.684,1.781,0.684c0.807,0,1.604-0.168,2.393-0.506v1.012
		c-0.401,0.173-0.78,0.297-1.139,0.373C61.178,69.56,60.746,69.597,60.24,69.597z M59.933,62.782c-0.602,0-1.081,0.196-1.438,0.588
		c-0.358,0.392-0.569,0.935-0.633,1.627h3.917c0-0.715-0.159-1.264-0.479-1.644S60.525,62.782,59.933,62.782z M59.092,60.806
		c0.219-0.282,0.455-0.624,0.707-1.025c0.254-0.401,0.453-0.75,0.599-1.046h1.381v0.144c-0.2,0.296-0.499,0.661-0.896,1.094
		c-0.396,0.433-0.74,0.768-1.032,1.005h-0.759V60.806z"/>
	<path fill="#232C50" d="M68.095,69.597c-1.107,0-1.981-0.337-2.622-1.012c-0.64-0.674-0.96-1.611-0.96-2.81
		c0-1.208,0.298-2.167,0.892-2.878c0.596-0.711,1.394-1.066,2.396-1.066c0.938,0,1.682,0.309,2.229,0.926s0.82,1.432,0.82,2.444
		v0.718h-5.161c0.022,0.88,0.245,1.547,0.667,2.003c0.421,0.456,1.015,0.684,1.78,0.684c0.807,0,1.604-0.168,2.393-0.506v1.012
		c-0.401,0.173-0.78,0.297-1.138,0.373C69.032,69.56,68.601,69.597,68.095,69.597z M67.787,62.782c-0.602,0-1.081,0.196-1.439,0.588
		c-0.357,0.392-0.568,0.935-0.632,1.627h3.917c0-0.715-0.16-1.264-0.479-1.644C68.835,62.972,68.379,62.782,67.787,62.782z"/>
	<path fill="#232C50" d="M77.911,69.46v-4.847c0-0.61-0.14-1.066-0.417-1.367c-0.278-0.301-0.713-0.451-1.306-0.451
		c-0.784,0-1.358,0.212-1.723,0.636s-0.547,1.124-0.547,2.099v3.931h-1.135v-7.492h0.923l0.185,1.025h0.055
		c0.232-0.369,0.558-0.655,0.978-0.858c0.419-0.203,0.887-0.304,1.401-0.304c0.902,0,1.581,0.218,2.037,0.653
		s0.684,1.131,0.684,2.088v4.888H77.911z"/>
	<path fill="#232C50" d="M86.504,69.46v-4.847c0-0.61-0.139-1.066-0.417-1.367s-0.714-0.451-1.306-0.451
		c-0.784,0-1.358,0.212-1.723,0.636c-0.365,0.424-0.547,1.124-0.547,2.099v3.931h-1.135v-7.492H82.3l0.185,1.025h0.055
		c0.232-0.369,0.559-0.655,0.978-0.858s0.886-0.304,1.401-0.304c0.902,0,1.581,0.218,2.037,0.653
		c0.455,0.435,0.684,1.131,0.684,2.088v4.888H86.504z"/>
	<path fill="#232C50" d="M93.135,69.597c-1.107,0-1.981-0.337-2.621-1.012c-0.641-0.674-0.961-1.611-0.961-2.81
		c0-1.208,0.297-2.167,0.893-2.878c0.594-0.711,1.393-1.066,2.396-1.066c0.938,0,1.682,0.309,2.229,0.926s0.82,1.432,0.82,2.444
		v0.718h-5.161c0.022,0.88,0.245,1.547,0.666,2.003c0.422,0.456,1.016,0.684,1.781,0.684c0.807,0,1.604-0.168,2.393-0.506v1.012
		c-0.401,0.173-0.78,0.297-1.139,0.373C94.072,69.56,93.641,69.597,93.135,69.597z M92.827,62.782c-0.602,0-1.081,0.196-1.438,0.588
		c-0.358,0.392-0.569,0.935-0.633,1.627h3.917c0-0.715-0.159-1.264-0.479-1.644S93.42,62.782,92.827,62.782z"/>
</g>
<path fill="none" stroke="#232C50" stroke-miterlimit="10" d="M112.864,56.68c0,31.03-25.155,56.183-56.181,56.183
	C25.652,112.863,0.5,87.71,0.5,56.68C0.5,25.653,25.652,0.5,56.684,0.5C87.709,0.5,112.864,25.653,112.864,56.68z"/>
</svg>
