<?xml version="1.0" encoding="utf-8"?>
<!-- Generator: Adobe Illustrator 16.0.0, SVG Export Plug-In . SVG Version: 6.00 Build 0)  -->
<!DOCTYPE svg PUBLIC "-//W3C//DTD SVG 1.1//EN" "http://www.w3.org/Graphics/SVG/1.1/DTD/svg11.dtd">
<svg version="1.1" id="Calque_1" xmlns="http://www.w3.org/2000/svg" xmlns:xlink="http://www.w3.org/1999/xlink" x="0px" y="0px"
	 width="141.333px" height="122.667px" viewBox="0 0 141.333 122.667" enable-background="new 0 0 141.333 122.667"
	 xml:space="preserve">
<g>
	<g>
		<path fill="#232C50" d="M33.702,96.741c-1.099,0-1.965,0.366-2.602,1.097c-0.635,0.731-0.953,1.733-0.953,3.004
			c0,1.308,0.307,2.319,0.92,3.032c0.612,0.713,1.486,1.07,2.621,1.07c0.697,0,1.492-0.125,2.386-0.376v1.019
			c-0.692,0.26-1.548,0.39-2.563,0.39c-1.473,0-2.607-0.447-3.408-1.34c-0.799-0.893-1.199-2.163-1.199-3.808
			c0-1.03,0.192-1.932,0.578-2.707c0.385-0.775,0.94-1.372,1.668-1.791c0.727-0.419,1.582-0.629,2.566-0.629
			c1.048,0,1.964,0.191,2.748,0.574l-0.492,0.998C35.215,96.918,34.458,96.741,33.702,96.741z"/>
		<path fill="#232C50" d="M44.551,102.086c0,1.221-0.308,2.175-0.923,2.861c-0.615,0.686-1.465,1.029-2.55,1.029
			c-0.67,0-1.265-0.157-1.784-0.472s-0.921-0.766-1.203-1.354c-0.283-0.588-0.424-1.276-0.424-2.064
			c0-1.221,0.305-2.172,0.916-2.854c0.61-0.681,1.458-1.022,2.543-1.022c1.048,0,1.881,0.349,2.498,1.046
			C44.242,99.954,44.551,100.897,44.551,102.086z M38.843,102.086c0,0.957,0.191,1.686,0.574,2.188s0.945,0.752,1.688,0.752
			s1.307-0.25,1.692-0.749c0.385-0.499,0.577-1.229,0.577-2.191c0-0.953-0.192-1.676-0.577-2.17
			c-0.386-0.494-0.954-0.742-1.706-0.742c-0.743,0-1.304,0.244-1.682,0.731S38.843,101.12,38.843,102.086z"/>
		<path fill="#232C50" d="M51.667,105.839v-4.847c0-0.611-0.139-1.066-0.417-1.367s-0.714-0.451-1.306-0.451
			c-0.784,0-1.358,0.212-1.723,0.636c-0.365,0.424-0.547,1.124-0.547,2.099v3.931H46.54v-7.492h0.923l0.185,1.025h0.055
			c0.232-0.369,0.559-0.655,0.978-0.858c0.419-0.203,0.886-0.304,1.401-0.304c0.902,0,1.581,0.218,2.037,0.653
			c0.455,0.436,0.684,1.131,0.684,2.088v4.888H51.667z"/>
		<path fill="#232C50" d="M59.966,103.795c0,0.697-0.26,1.235-0.779,1.613s-1.249,0.567-2.188,0.567
			c-0.994,0-1.769-0.157-2.324-0.472v-1.053c0.359,0.182,0.746,0.326,1.158,0.431c0.413,0.105,0.811,0.157,1.193,0.157
			c0.592,0,1.048-0.094,1.367-0.284c0.318-0.189,0.479-0.478,0.479-0.865c0-0.292-0.127-0.541-0.379-0.749
			c-0.254-0.207-0.747-0.452-1.48-0.735c-0.697-0.26-1.193-0.486-1.486-0.68c-0.295-0.193-0.514-0.414-0.656-0.66
			c-0.145-0.246-0.216-0.54-0.216-0.882c0-0.611,0.248-1.092,0.745-1.446c0.496-0.353,1.178-0.53,2.044-0.53
			c0.807,0,1.595,0.164,2.365,0.492l-0.403,0.923c-0.752-0.31-1.434-0.465-2.044-0.465c-0.538,0-0.943,0.084-1.217,0.253
			s-0.41,0.401-0.41,0.697c0,0.201,0.052,0.372,0.153,0.513c0.104,0.141,0.268,0.276,0.496,0.403
			c0.228,0.127,0.665,0.312,1.313,0.554c0.889,0.324,1.489,0.649,1.801,0.978C59.81,102.886,59.966,103.299,59.966,103.795z"/>
		<path fill="#232C50" d="M62.878,98.347v4.86c0,0.611,0.139,1.066,0.417,1.367s0.713,0.451,1.306,0.451
			c0.783,0,1.357-0.214,1.719-0.643c0.363-0.428,0.544-1.128,0.544-2.099v-3.938h1.135v7.492h-0.937l-0.164-1.005h-0.062
			c-0.232,0.369-0.555,0.652-0.968,0.848c-0.412,0.196-0.883,0.294-1.411,0.294c-0.911,0-1.594-0.216-2.048-0.649
			c-0.453-0.433-0.68-1.125-0.68-2.078v-4.901H62.878z"/>
		<path fill="#232C50" d="M71.539,105.839h-1.135V95.203h1.135V105.839z"/>
		<path fill="#232C50" d="M76.365,105.04c0.2,0,0.394-0.015,0.581-0.044c0.187-0.029,0.335-0.061,0.444-0.092v0.868
			c-0.123,0.059-0.304,0.108-0.544,0.147c-0.238,0.039-0.454,0.058-0.646,0.058c-1.449,0-2.174-0.763-2.174-2.29v-4.457h-1.073
			v-0.547l1.073-0.472l0.479-1.6h0.656v1.736h2.174v0.882h-2.174v4.409c0,0.451,0.106,0.797,0.321,1.039
			C75.697,104.919,75.991,105.04,76.365,105.04z"/>
		<path fill="#232C50" d="M83.495,105.839l-0.226-1.066h-0.055c-0.374,0.469-0.746,0.788-1.118,0.954
			c-0.371,0.166-0.835,0.25-1.391,0.25c-0.743,0-1.325-0.191-1.746-0.574c-0.422-0.383-0.633-0.927-0.633-1.634
			c0-1.513,1.21-2.306,3.63-2.379l1.271-0.041v-0.465c0-0.588-0.126-1.022-0.38-1.302c-0.252-0.28-0.657-0.42-1.213-0.42
			c-0.625,0-1.331,0.191-2.119,0.574l-0.349-0.868c0.369-0.201,0.773-0.358,1.214-0.472c0.439-0.114,0.88-0.171,1.322-0.171
			c0.893,0,1.555,0.198,1.986,0.595c0.43,0.396,0.646,1.032,0.646,1.907v5.113H83.495z M80.932,105.04
			c0.706,0,1.261-0.194,1.665-0.581c0.402-0.387,0.604-0.93,0.604-1.627v-0.677l-1.135,0.048c-0.902,0.032-1.553,0.172-1.952,0.42
			c-0.398,0.249-0.598,0.635-0.598,1.159c0,0.41,0.124,0.722,0.373,0.937C80.138,104.933,80.485,105.04,80.932,105.04z"/>
		<path fill="#232C50" d="M89.094,105.04c0.2,0,0.394-0.015,0.581-0.044c0.187-0.029,0.335-0.061,0.444-0.092v0.868
			c-0.123,0.059-0.304,0.108-0.544,0.147c-0.238,0.039-0.454,0.058-0.646,0.058c-1.449,0-2.174-0.763-2.174-2.29v-4.457h-1.073
			v-0.547l1.073-0.472l0.479-1.6h0.656v1.736h2.174v0.882h-2.174v4.409c0,0.451,0.106,0.797,0.321,1.039
			C88.426,104.919,88.72,105.04,89.094,105.04z"/>
		<path fill="#232C50" d="M91.521,96.317c0-0.26,0.063-0.45,0.191-0.571c0.127-0.121,0.287-0.181,0.479-0.181
			c0.182,0,0.34,0.062,0.472,0.185s0.198,0.312,0.198,0.567s-0.066,0.446-0.198,0.571c-0.132,0.125-0.29,0.188-0.472,0.188
			c-0.191,0-0.352-0.063-0.479-0.188C91.584,96.763,91.521,96.572,91.521,96.317z M92.751,105.839h-1.135v-7.492h1.135V105.839z"/>
		<path fill="#232C50" d="M101.624,102.086c0,1.221-0.308,2.175-0.923,2.861c-0.615,0.686-1.466,1.029-2.55,1.029
			c-0.67,0-1.265-0.157-1.784-0.472s-0.921-0.766-1.203-1.354s-0.424-1.276-0.424-2.064c0-1.221,0.306-2.172,0.916-2.854
			c0.61-0.681,1.458-1.022,2.543-1.022c1.048,0,1.881,0.349,2.499,1.046C101.315,99.954,101.624,100.897,101.624,102.086z
			 M95.916,102.086c0,0.957,0.191,1.686,0.574,2.188s0.945,0.752,1.688,0.752c0.742,0,1.307-0.25,1.691-0.749
			c0.386-0.499,0.578-1.229,0.578-2.191c0-0.953-0.192-1.676-0.578-2.17c-0.385-0.494-0.953-0.742-1.705-0.742
			c-0.743,0-1.304,0.244-1.682,0.731C96.104,100.394,95.916,101.12,95.916,102.086z"/>
		<path fill="#232C50" d="M108.74,105.839v-4.847c0-0.611-0.14-1.066-0.417-1.367c-0.278-0.301-0.713-0.451-1.306-0.451
			c-0.784,0-1.358,0.212-1.723,0.636s-0.547,1.124-0.547,2.099v3.931h-1.135v-7.492h0.923l0.185,1.025h0.055
			c0.232-0.369,0.558-0.655,0.978-0.858c0.419-0.203,0.887-0.304,1.401-0.304c0.902,0,1.581,0.218,2.037,0.653
			c0.456,0.436,0.684,1.131,0.684,2.088v4.888H108.74z"/>
	</g>
</g>
<polygon fill="none" stroke="#232C50" stroke-miterlimit="10" points="4.528,117.751 69.526,5.173 134.522,117.751 "/>
</svg>
