<?xml version="1.0" encoding="utf-8"?>
<!-- Generator: Adobe Illustrator 16.0.0, SVG Export Plug-In . SVG Version: 6.00 Build 0)  -->
<!DOCTYPE svg PUBLIC "-//W3C//DTD SVG 1.1//EN" "http://www.w3.org/Graphics/SVG/1.1/DTD/svg11.dtd">
<svg version="1.1" id="Calque_1" xmlns="http://www.w3.org/2000/svg" xmlns:xlink="http://www.w3.org/1999/xlink" x="0px" y="0px"
	 width="459.297px" height="595.281px" viewBox="0 0 459.297 595.281" enable-background="new 0 0 459.297 595.281"
	 xml:space="preserve">
<path fill="#FFFFFF" d="M0,0v595.281h459.297V0H0z M20.038,552.068c-3.575,0-6.474-2.898-6.474-6.475
	c0-3.574,2.898-6.475,6.474-6.475s6.474,2.9,6.474,6.475C26.512,549.169,23.613,552.068,20.038,552.068z M20.038,386.765
	c-3.575,0-6.474-2.898-6.474-6.475c0-3.574,2.898-6.474,6.474-6.474s6.474,2.899,6.474,6.474
	C26.512,383.867,23.613,386.765,20.038,386.765z M20.038,221.463c-3.575,0-6.474-2.899-6.474-6.475s2.898-6.474,6.474-6.474
	s6.474,2.898,6.474,6.474S23.613,221.463,20.038,221.463z M20.038,56.161c-3.575,0-6.474-2.899-6.474-6.474s2.898-6.474,6.474-6.474
	s6.474,2.898,6.474,6.474S23.613,56.161,20.038,56.161z"/>
</svg>
