<?xml version="1.0" encoding="utf-8"?>
<!-- Generator: Adobe Illustrator 16.0.0, SVG Export Plug-In . SVG Version: 6.00 Build 0)  -->
<!DOCTYPE svg PUBLIC "-//W3C//DTD SVG 1.1//EN" "http://www.w3.org/Graphics/SVG/1.1/DTD/svg11.dtd">
<svg version="1.1" id="Calque_1" xmlns="http://www.w3.org/2000/svg" xmlns:xlink="http://www.w3.org/1999/xlink" x="0px" y="0px"
	 width="130.859px" height="100.593px" viewBox="0 0 130.859 100.593" enable-background="new 0 0 130.859 100.593"
	 xml:space="preserve">
<g>
	<g>
		<line fill="none" stroke="#232C50" stroke-miterlimit="10" x1="55.049" y1="10.43" x2="45.559" y2="86.641"/>
		<g>
			<polygon fill="#232C50" points="51.459,11.012 55.669,5.445 58.386,11.875 			"/>
		</g>
	</g>
</g>
<g>
	<g>
		<line fill="none" stroke="#232C50" stroke-miterlimit="10" x1="44.241" y1="10.313" x2="24.333" y2="88.537"/>
		<g>
			<polygon fill="#232C50" points="40.606,10.441 45.479,5.445 47.371,12.164 			"/>
		</g>
	</g>
</g>
<g>
	<g>
		<line fill="none" stroke="#232C50" stroke-miterlimit="10" x1="33.456" y1="10.123" x2="6.172" y2="79.729"/>
		<g>
			<polygon fill="#232C50" points="29.834,9.799 35.289,5.445 36.332,12.348 			"/>
		</g>
	</g>
</g>
<g>
	<g>
		<line fill="none" stroke="#232C50" stroke-miterlimit="10" x1="76.674" y1="10.43" x2="86.169" y2="86.641"/>
		<g>
			<polygon fill="#232C50" points="73.336,11.875 76.053,5.445 80.264,11.012 			"/>
		</g>
	</g>
</g>
<g>
	<g>
		<line fill="none" stroke="#232C50" stroke-miterlimit="10" x1="87.479" y1="10.314" x2="104.803" y2="78.646"/>
		<g>
			<polygon fill="#232C50" points="84.346,12.162 86.244,5.445 91.113,10.447 			"/>
		</g>
	</g>
</g>
<g>
	<g>
		<line fill="none" stroke="#232C50" stroke-miterlimit="10" x1="98.27" y1="10.123" x2="125.556" y2="79.729"/>
		<g>
			<polygon fill="#232C50" points="95.393,12.348 96.436,5.445 101.892,9.799 			"/>
		</g>
	</g>
</g>
<g>
	<g>
		<line fill="none" stroke="#232C50" stroke-miterlimit="10" x1="65.551" y1="10.469" x2="67.115" y2="97.328"/>
		<g>
			<polygon fill="#232C50" points="62.079,11.553 65.459,5.445 69.059,11.426 			"/>
		</g>
	</g>
</g>
</svg>
