<?xml version="1.0" encoding="utf-8"?>
<!-- Generator: Adobe Illustrator 16.0.0, SVG Export Plug-In . SVG Version: 6.00 Build 0)  -->
<!DOCTYPE svg PUBLIC "-//W3C//DTD SVG 1.1//EN" "http://www.w3.org/Graphics/SVG/1.1/DTD/svg11.dtd">
<svg version="1.1" xmlns="http://www.w3.org/2000/svg" xmlns:xlink="http://www.w3.org/1999/xlink" x="0px" y="0px"
	 width="265.333px" height="146.667px" viewBox="0 0 265.333 146.667" enable-background="new 0 0 265.333 146.667"
	 xml:space="preserve">
<g id="Calque_1">
	<g>
		<g>
			<path fill="#232C50" d="M97.987,75.128c0,1.6-0.405,2.857-1.213,3.773c-0.809,0.916-1.934,1.374-3.374,1.374
				c-1.472,0-2.608-0.45-3.408-1.351c-0.8-0.899-1.2-2.17-1.2-3.811c0-1.627,0.401-2.889,1.203-3.783
				c0.802-0.896,1.941-1.344,3.418-1.344c1.436,0,2.557,0.456,3.363,1.367S97.987,73.523,97.987,75.128z M90.023,75.128
				c0,1.354,0.288,2.38,0.865,3.08c0.576,0.699,1.414,1.049,2.512,1.049c1.107,0,1.944-0.349,2.509-1.046s0.848-1.725,0.848-3.083
				c0-1.345-0.282-2.364-0.844-3.059c-0.563-0.695-1.396-1.043-2.499-1.043c-1.107,0-1.95,0.35-2.526,1.049
				C90.312,72.775,90.023,73.793,90.023,75.128z"/>
			<path fill="#232C50" d="M103.463,72.51c0.333,0,0.631,0.027,0.896,0.082l-0.157,1.053c-0.31-0.068-0.583-0.103-0.82-0.103
				c-0.606,0-1.125,0.246-1.555,0.738s-0.646,1.105-0.646,1.839v4.02h-1.135v-7.492h0.937l0.13,1.388h0.055
				c0.278-0.487,0.613-0.863,1.005-1.128S102.994,72.51,103.463,72.51z"/>
			<path fill="#232C50" d="M111.892,72.646v0.718l-1.388,0.164c0.127,0.159,0.242,0.368,0.342,0.625
				c0.1,0.258,0.15,0.549,0.15,0.872c0,0.733-0.25,1.319-0.752,1.757s-1.189,0.656-2.064,0.656c-0.223,0-0.433-0.019-0.629-0.055
				c-0.483,0.255-0.725,0.576-0.725,0.964c0,0.205,0.084,0.356,0.253,0.454c0.168,0.099,0.458,0.147,0.868,0.147h1.326
				c0.811,0,1.434,0.171,1.87,0.513c0.435,0.342,0.653,0.839,0.653,1.49c0,0.829-0.333,1.462-0.998,1.896
				c-0.666,0.436-1.636,0.653-2.912,0.653c-0.98,0-1.735-0.183-2.266-0.547c-0.531-0.364-0.796-0.88-0.796-1.545
				c0-0.456,0.146-0.85,0.438-1.183s0.702-0.559,1.23-0.677c-0.191-0.087-0.352-0.221-0.482-0.403s-0.195-0.395-0.195-0.636
				c0-0.273,0.073-0.513,0.219-0.718s0.376-0.403,0.69-0.595c-0.387-0.159-0.703-0.431-0.947-0.813
				c-0.244-0.383-0.366-0.82-0.366-1.313c0-0.82,0.246-1.453,0.738-1.896c0.492-0.445,1.189-0.667,2.092-0.667
				c0.392,0,0.745,0.046,1.06,0.137H111.892z M105.917,81.396c0,0.405,0.171,0.713,0.513,0.923s0.832,0.314,1.47,0.314
				c0.953,0,1.658-0.143,2.116-0.428c0.458-0.284,0.687-0.671,0.687-1.158c0-0.405-0.125-0.688-0.376-0.844
				c-0.25-0.158-0.722-0.236-1.415-0.236h-1.36c-0.515,0-0.916,0.123-1.203,0.369S105.917,80.937,105.917,81.396z M106.532,75.046
				c0,0.524,0.148,0.921,0.444,1.189s0.708,0.403,1.237,0.403c1.107,0,1.661-0.538,1.661-1.613c0-1.126-0.561-1.688-1.682-1.688
				c-0.533,0-0.943,0.144-1.23,0.431S106.532,74.48,106.532,75.046z"/>
			<path fill="#232C50" d="M118.037,80.139l-0.226-1.066h-0.055c-0.374,0.47-0.747,0.787-1.118,0.954
				c-0.372,0.166-0.835,0.249-1.391,0.249c-0.743,0-1.325-0.191-1.747-0.574c-0.422-0.383-0.632-0.928-0.632-1.634
				c0-1.513,1.21-2.306,3.63-2.379l1.271-0.041v-0.465c0-0.588-0.126-1.021-0.379-1.303c-0.253-0.279-0.657-0.42-1.213-0.42
				c-0.625,0-1.331,0.191-2.119,0.574l-0.349-0.868c0.369-0.2,0.773-0.357,1.213-0.472c0.439-0.114,0.881-0.171,1.323-0.171
				c0.893,0,1.555,0.198,1.986,0.595s0.646,1.032,0.646,1.907v5.113H118.037z M115.474,79.339c0.707,0,1.261-0.193,1.665-0.581
				s0.605-0.93,0.605-1.627v-0.677l-1.135,0.048c-0.902,0.032-1.553,0.172-1.952,0.421c-0.399,0.248-0.598,0.634-0.598,1.158
				c0,0.41,0.124,0.723,0.373,0.937C114.679,79.231,115.027,79.339,115.474,79.339z"/>
			<path fill="#232C50" d="M126.343,80.139v-4.847c0-0.61-0.139-1.066-0.417-1.367s-0.713-0.451-1.306-0.451
				c-0.784,0-1.358,0.212-1.723,0.636s-0.547,1.123-0.547,2.099v3.931h-1.135v-7.492h0.923l0.185,1.025h0.055
				c0.232-0.369,0.558-0.655,0.978-0.858c0.419-0.202,0.886-0.304,1.401-0.304c0.902,0,1.582,0.218,2.037,0.653
				c0.456,0.435,0.684,1.131,0.684,2.088v4.888H126.343z"/>
			<path fill="#232C50" d="M129.713,70.616c0-0.26,0.064-0.45,0.191-0.57c0.127-0.121,0.287-0.182,0.479-0.182
				c0.182,0,0.339,0.062,0.472,0.185s0.198,0.313,0.198,0.567s-0.066,0.445-0.198,0.57c-0.132,0.126-0.29,0.188-0.472,0.188
				c-0.191,0-0.351-0.063-0.479-0.188C129.777,71.062,129.713,70.871,129.713,70.616z M130.943,80.139h-1.135v-7.492h1.135V80.139z"
				/>
			<path fill="#232C50" d="M138.183,78.095c0,0.697-0.26,1.235-0.779,1.613s-1.249,0.567-2.188,0.567
				c-0.994,0-1.768-0.157-2.324-0.472v-1.053c0.36,0.183,0.746,0.326,1.159,0.431c0.412,0.104,0.81,0.157,1.193,0.157
				c0.592,0,1.048-0.095,1.367-0.283c0.319-0.189,0.479-0.478,0.479-0.865c0-0.292-0.126-0.541-0.379-0.748
				c-0.253-0.208-0.746-0.453-1.48-0.735c-0.697-0.26-1.193-0.486-1.487-0.681c-0.294-0.193-0.513-0.413-0.656-0.659
				s-0.215-0.54-0.215-0.882c0-0.61,0.249-1.093,0.745-1.445c0.497-0.354,1.178-0.53,2.044-0.53c0.807,0,1.595,0.164,2.365,0.492
				l-0.403,0.923c-0.752-0.31-1.433-0.465-2.044-0.465c-0.538,0-0.943,0.084-1.217,0.253s-0.41,0.401-0.41,0.697
				c0,0.2,0.051,0.371,0.154,0.513s0.268,0.275,0.496,0.403s0.666,0.313,1.313,0.554c0.889,0.323,1.489,0.649,1.801,0.978
				C138.026,77.186,138.183,77.598,138.183,78.095z"/>
			<path fill="#232C50" d="M144.636,80.139l-0.226-1.066h-0.055c-0.374,0.47-0.747,0.787-1.118,0.954
				c-0.372,0.166-0.835,0.249-1.391,0.249c-0.743,0-1.325-0.191-1.747-0.574c-0.422-0.383-0.632-0.928-0.632-1.634
				c0-1.513,1.21-2.306,3.63-2.379l1.271-0.041v-0.465c0-0.588-0.126-1.021-0.379-1.303c-0.253-0.279-0.657-0.42-1.213-0.42
				c-0.625,0-1.331,0.191-2.119,0.574l-0.349-0.868c0.369-0.2,0.773-0.357,1.213-0.472c0.439-0.114,0.881-0.171,1.323-0.171
				c0.893,0,1.555,0.198,1.986,0.595s0.646,1.032,0.646,1.907v5.113H144.636z M142.072,79.339c0.707,0,1.261-0.193,1.665-0.581
				s0.605-0.93,0.605-1.627v-0.677l-1.135,0.048c-0.902,0.032-1.553,0.172-1.952,0.421c-0.399,0.248-0.598,0.634-0.598,1.158
				c0,0.41,0.124,0.723,0.373,0.937C141.278,79.231,141.625,79.339,142.072,79.339z"/>
			<path fill="#232C50" d="M150.234,79.339c0.201,0,0.394-0.015,0.581-0.045c0.187-0.029,0.335-0.06,0.444-0.092v0.868
				c-0.123,0.06-0.304,0.108-0.543,0.147c-0.239,0.038-0.455,0.058-0.646,0.058c-1.449,0-2.174-0.764-2.174-2.29v-4.457h-1.073
				v-0.547l1.073-0.472l0.479-1.6h0.656v1.736h2.174v0.882h-2.174v4.409c0,0.451,0.107,0.798,0.321,1.039
				S149.861,79.339,150.234,79.339z"/>
			<path fill="#232C50" d="M152.661,70.616c0-0.26,0.064-0.45,0.191-0.57c0.127-0.121,0.287-0.182,0.479-0.182
				c0.182,0,0.339,0.062,0.472,0.185s0.198,0.313,0.198,0.567s-0.066,0.445-0.198,0.57c-0.132,0.126-0.29,0.188-0.472,0.188
				c-0.191,0-0.351-0.063-0.479-0.188C152.725,71.062,152.661,70.871,152.661,70.616z M153.892,80.139h-1.135v-7.492h1.135V80.139z"
				/>
			<path fill="#232C50" d="M162.765,76.386c0,1.222-0.308,2.175-0.923,2.861c-0.615,0.686-1.465,1.028-2.55,1.028
				c-0.67,0-1.265-0.157-1.784-0.472s-0.92-0.766-1.203-1.354s-0.424-1.276-0.424-2.064c0-1.222,0.305-2.173,0.916-2.854
				c0.611-0.682,1.458-1.022,2.543-1.022c1.048,0,1.881,0.349,2.499,1.046C162.456,74.253,162.765,75.196,162.765,76.386z
				 M157.057,76.386c0,0.957,0.191,1.687,0.574,2.188s0.946,0.752,1.688,0.752s1.307-0.25,1.692-0.748
				c0.385-0.5,0.578-1.229,0.578-2.191c0-0.952-0.193-1.676-0.578-2.17c-0.385-0.495-0.954-0.742-1.706-0.742
				c-0.743,0-1.303,0.244-1.682,0.731S157.057,75.42,157.057,76.386z"/>
			<path fill="#232C50" d="M169.881,80.139v-4.847c0-0.61-0.139-1.066-0.417-1.367s-0.713-0.451-1.306-0.451
				c-0.784,0-1.358,0.212-1.723,0.636s-0.547,1.123-0.547,2.099v3.931h-1.135v-7.492h0.923l0.185,1.025h0.055
				c0.232-0.369,0.558-0.655,0.978-0.858c0.419-0.202,0.886-0.304,1.401-0.304c0.902,0,1.582,0.218,2.037,0.653
				c0.456,0.435,0.684,1.131,0.684,2.088v4.888H169.881z"/>
			<path fill="#232C50" d="M178.18,78.095c0,0.697-0.26,1.235-0.779,1.613s-1.249,0.567-2.188,0.567
				c-0.994,0-1.768-0.157-2.324-0.472v-1.053c0.36,0.183,0.746,0.326,1.159,0.431c0.412,0.104,0.81,0.157,1.193,0.157
				c0.592,0,1.048-0.095,1.367-0.283c0.319-0.189,0.479-0.478,0.479-0.865c0-0.292-0.126-0.541-0.379-0.748
				c-0.253-0.208-0.746-0.453-1.48-0.735c-0.697-0.26-1.193-0.486-1.487-0.681c-0.294-0.193-0.513-0.413-0.656-0.659
				s-0.215-0.54-0.215-0.882c0-0.61,0.249-1.093,0.745-1.445c0.497-0.354,1.178-0.53,2.044-0.53c0.807,0,1.595,0.164,2.365,0.492
				l-0.403,0.923c-0.752-0.31-1.433-0.465-2.044-0.465c-0.538,0-0.943,0.084-1.217,0.253s-0.41,0.401-0.41,0.697
				c0,0.2,0.051,0.371,0.154,0.513s0.268,0.275,0.496,0.403s0.666,0.313,1.313,0.554c0.889,0.323,1.489,0.649,1.801,0.978
				C178.023,77.186,178.18,77.598,178.18,78.095z"/>
		</g>
	</g>
	<path fill="none" stroke="#232C50" stroke-miterlimit="10" d="M208.978,65.222c-4.558,0-8.25-3.692-8.25-8.252
		c0-4.553,3.692-8.248,8.25-8.248c4.555,0,8.249,3.695,8.249,8.248C217.227,61.529,213.532,65.222,208.978,65.222z"/>
	<path fill="none" stroke="#232C50" stroke-miterlimit="10" d="M211.547,43.657c-4.558,0-8.25-3.691-8.25-8.252
		c0-4.553,3.692-8.248,8.25-8.248c4.555,0,8.249,3.695,8.249,8.248C219.796,39.966,216.102,43.657,211.547,43.657z"/>
	<path fill="none" stroke="#232C50" stroke-miterlimit="10" d="M228.046,23.429c-4.558,0-8.25-3.693-8.25-8.252
		c0-4.553,3.692-8.248,8.25-8.248c4.555,0,8.249,3.695,8.249,8.248C236.295,19.735,232.601,23.429,228.046,23.429z"/>
	<path fill="none" stroke="#232C50" stroke-miterlimit="10" d="M253.17,43.657c-4.557,0-8.25-3.691-8.25-8.252
		c0-4.553,3.693-8.248,8.25-8.248c4.555,0,8.25,3.695,8.25,8.248C261.42,39.966,257.725,43.657,253.17,43.657z"/>
	<path fill="none" stroke="#232C50" stroke-miterlimit="10" d="M190.692,103.636c-4.555,0-8.247-3.692-8.247-8.25
		c0-4.555,3.692-8.248,8.247-8.248c4.558,0,8.252,3.693,8.252,8.248C198.944,99.943,195.25,103.636,190.692,103.636z"/>
	<circle fill="none" stroke="#232C50" stroke-miterlimit="10" cx="217.227" cy="87.541" r="8.248"/>
	<circle fill="none" stroke="#232C50" stroke-miterlimit="10" cx="233.727" cy="103.637" r="8.249"/>
	<circle fill="none" stroke="#232C50" stroke-miterlimit="10" cx="241.977" cy="73.47" r="8.248"/>
	<path fill="none" stroke="#232C50" stroke-miterlimit="10" d="M188.267,73.47c-4.556,0-8.247-3.693-8.247-8.25
		c0-4.556,3.691-8.25,8.247-8.25c4.558,0,8.251,3.694,8.251,8.25C196.518,69.776,192.824,73.47,188.267,73.47z"/>
	<circle fill="none" stroke="#232C50" stroke-miterlimit="10" cx="160.913" cy="106.528" r="8.251"/>
	<circle fill="none" stroke="#232C50" stroke-miterlimit="10" cx="156.965" cy="48.721" r="8.249"/>
	<path fill="none" stroke="#232C50" stroke-miterlimit="10" d="M134.675,65.483c-4.558,0-8.253-3.694-8.253-8.248
		c0-4.558,3.695-8.25,8.253-8.25c4.555,0,8.25,3.692,8.25,8.25C142.926,61.789,139.23,65.483,134.675,65.483z"/>
	<path fill="none" stroke="#232C50" stroke-miterlimit="10" d="M198.379,126.028c-4.559,0-8.253-3.693-8.253-8.248
		c0-4.557,3.694-8.248,8.253-8.248c4.555,0,8.25,3.691,8.25,8.248C206.629,122.335,202.934,126.028,198.379,126.028z"/>
	<circle fill="none" stroke="#232C50" stroke-miterlimit="10" cx="110.616" cy="109.532" r="8.249"/>
	<circle fill="none" stroke="#232C50" stroke-miterlimit="10" cx="132.668" cy="93.583" r="8.249"/>
	<path fill="none" stroke="#232C50" stroke-miterlimit="10" d="M137.227,131.793c-4.558,0-8.253-3.695-8.253-8.25
		c0-4.557,3.695-8.25,8.253-8.25c4.554,0,8.25,3.693,8.25,8.25C145.477,128.098,141.781,131.793,137.227,131.793z"/>
	<path fill="none" stroke="#232C50" stroke-miterlimit="10" d="M182.445,46.294c-4.558,0-8.253-3.695-8.253-8.25
		c0-4.558,3.695-8.25,8.253-8.25c4.555,0,8.25,3.692,8.25,8.25C190.695,42.599,187,46.294,182.445,46.294z"/>
	<path fill="none" stroke="#232C50" stroke-miterlimit="10" d="M175.084,21.534c-4.558,0-8.25-3.698-8.25-8.252
		c0-4.559,3.692-8.25,8.25-8.25c4.557,0,8.249,3.691,8.249,8.25C183.333,17.836,179.641,21.534,175.084,21.534z"/>
	<circle fill="none" stroke="#232C50" stroke-miterlimit="10" cx="196.519" cy="14.618" r="8.249"/>
	<circle fill="none" stroke="#232C50" stroke-miterlimit="10" cx="89.594" cy="22.867" r="8.251"/>
	<path fill="none" stroke="#232C50" stroke-miterlimit="10" d="M113.732,29.783c-4.555,0-8.25-3.695-8.25-8.249
		c0-4.559,3.695-8.252,8.25-8.252c4.559,0,8.251,3.693,8.251,8.252C121.983,26.088,118.291,29.783,113.732,29.783z"/>
	<circle fill="none" stroke="#232C50" stroke-miterlimit="10" cx="135.367" cy="32.22" r="8.25"/>
	<path fill="none" stroke="#232C50" stroke-miterlimit="10" d="M155.268,29.783c-4.558,0-8.252-3.695-8.252-8.249
		c0-4.559,3.694-8.252,8.252-8.252c4.557,0,8.25,3.693,8.25,8.252C163.518,26.088,159.824,29.783,155.268,29.783z"/>
	<circle fill="none" stroke="#232C50" stroke-miterlimit="10" cx="69.609" cy="13.283" r="8.251"/>
	<circle fill="none" stroke="#232C50" stroke-miterlimit="10" cx="44.378" cy="106.528" r="8.249"/>
	<circle fill="none" stroke="#232C50" stroke-miterlimit="10" cx="92.585" cy="54.542" r="8.25"/>
	<circle fill="none" stroke="#232C50" stroke-miterlimit="10" cx="114.054" cy="46.293" r="8.25"/>
	<path fill="none" stroke="#232C50" stroke-miterlimit="10" d="M74.948,48.722c-4.559,0-8.252-3.694-8.252-8.252
		c0-4.555,3.694-8.25,8.252-8.25c4.555,0,8.249,3.695,8.249,8.25C83.197,45.027,79.503,48.722,74.948,48.722z"/>
	<circle fill="none" stroke="#232C50" stroke-miterlimit="10" cx="84.334" cy="101.277" r="8.25"/>
	<path fill="none" stroke="#232C50" stroke-miterlimit="10" d="M58.449,67.482c-4.557,0-8.252-3.692-8.252-8.247
		c0-4.558,3.695-8.25,8.252-8.25c4.555,0,8.247,3.692,8.247,8.25C66.696,63.79,63.003,67.482,58.449,67.482z"/>
	<path fill="none" stroke="#232C50" stroke-miterlimit="10" d="M50.199,46.292c-4.557,0-8.252-3.693-8.252-8.247
		c0-4.558,3.695-8.25,8.252-8.25c4.555,0,8.247,3.692,8.247,8.25C58.446,42.599,54.753,46.292,50.199,46.292z"/>
	<path fill="none" stroke="#232C50" stroke-miterlimit="10" d="M27.881,29.782c-4.557,0-8.252-3.693-8.252-8.248
		c0-4.558,3.695-8.25,8.252-8.25c4.555,0,8.247,3.692,8.247,8.25C36.128,26.089,32.436,29.782,27.881,29.782z"/>
	<path fill="none" stroke="#232C50" stroke-miterlimit="10" d="M36.13,81.718c-4.557,0-8.252-3.691-8.252-8.246
		c0-4.559,3.695-8.25,8.252-8.25c4.555,0,8.248,3.691,8.248,8.25C44.378,78.026,40.686,81.718,36.13,81.718z"/>
	<path fill="none" stroke="#232C50" stroke-miterlimit="10" d="M22.361,114.776c-4.557,0-8.253-3.693-8.253-8.248
		c0-4.557,3.696-8.249,8.253-8.249c4.555,0,8.247,3.692,8.247,8.249C30.608,111.083,26.916,114.776,22.361,114.776z"/>
	<path fill="none" stroke="#232C50" stroke-miterlimit="10" d="M14.111,87.541c-4.557,0-8.253-3.692-8.253-8.247
		c0-4.558,3.696-8.25,8.253-8.25c4.555,0,8.247,3.692,8.247,8.25C22.358,83.849,18.666,87.541,14.111,87.541z"/>
	<path fill="none" stroke="#232C50" stroke-miterlimit="10" d="M25.446,59.233c-4.557,0-8.252-3.692-8.252-8.247
		c0-4.558,3.695-8.25,8.252-8.25c4.555,0,8.247,3.692,8.247,8.25C33.692,55.541,30,59.233,25.446,59.233z"/>
	<circle fill="none" stroke="#232C50" stroke-miterlimit="10" cx="233.729" cy="50.985" r="8.248"/>
	<path fill="none" stroke="#232C50" stroke-miterlimit="10" d="M68.385,92.388c-4.559,0-8.252-3.692-8.252-8.248
		c0-4.557,3.694-8.25,8.252-8.25c4.555,0,8.249,3.693,8.249,8.25C76.634,88.695,72.94,92.388,68.385,92.388z"/>
	<path fill="none" stroke="#232C50" stroke-miterlimit="10" d="M69.61,128.791c-4.559,0-8.252-3.692-8.252-8.249
		c0-4.555,3.694-8.248,8.252-8.248c4.555,0,8.248,3.693,8.248,8.248C77.858,125.099,74.165,128.791,69.61,128.791z"/>
	<path fill="none" stroke="#232C50" stroke-miterlimit="10" d="M103.619,140.044c-4.555,0-8.247-3.693-8.247-8.25
		c0-4.556,3.692-8.251,8.247-8.251c4.559,0,8.252,3.695,8.252,8.251C111.871,136.351,108.177,140.044,103.619,140.044z"/>
	<circle fill="none" stroke="#232C50" stroke-miterlimit="10" cx="171.767" cy="131.793" r="8.25"/>
</g>
<g id="Calque_2" display="none">
	<circle display="inline" stroke="#000000" stroke-miterlimit="10" cx="132.871" cy="93.583" r="2.656"/>
</g>
</svg>
