<?xml version="1.0" encoding="utf-8"?>
<!-- Generator: Adobe Illustrator 16.0.0, SVG Export Plug-In . SVG Version: 6.00 Build 0)  -->
<!DOCTYPE svg PUBLIC "-//W3C//DTD SVG 1.1//EN" "http://www.w3.org/Graphics/SVG/1.1/DTD/svg11.dtd">
<svg version="1.1" xmlns="http://www.w3.org/2000/svg" xmlns:xlink="http://www.w3.org/1999/xlink" x="0px" y="0px"
	 width="30.335px" height="26.5px" viewBox="0 0 30.335 26.5" enable-background="new 0 0 30.335 26.5" xml:space="preserve">
<g id="Calque_1">
	<path fill="#B1B1B1" d="M14.926,4c-3.634,0-6.968,1.703-9.122,4.577l-2.885-0.97L4.5,15.426l5.981-5.277L7.816,9.253
		C9.592,7.2,12.154,6,14.926,6c5.197,0,9.426,4.229,9.426,9.426c0,2.378-0.889,4.649-2.502,6.396
		c-0.375,0.406-0.35,1.038,0.056,1.413c0.192,0.178,0.436,0.266,0.679,0.266c0.269,0,0.538-0.108,0.734-0.321
		c1.956-2.117,3.033-4.87,3.033-7.753C26.352,9.126,21.226,4,14.926,4z"/>
</g>
<g id="Calque_2" display="none">
</g>
</svg>
